# xmcd CD database file
# Copyright (C) 1993-1996 Ti Kan
#
# Track frame offsets:
#	150
#	13127
#	32585
#	46777
#	61097
#	75842
#	99935
#	117827
#	134972
#	150105
#	169762
#	196470
#	203132
#	223695
#
# Disc length: 3476 seconds
#
# Revision: 1
# Processed by: cddbd v1.4PL0 Copyright (c) Steve Scherf et al.
# Submitted via: CDValet v3.01 - Copyright (c) 1997 Greg Leichner
#
DISCID=ae0d920e
DTITLE=Bobby Bare - Lullabys, Legends, and Lies
DYEAR=1992
DGENRE=Country
TTITLE0=Lullabys, Legends, and Lies
TTITLE1=Paul
TTITLE2=Marie Laveau
TTITLE3=Daddy What If (& Bobby Bare Jr.)
TTITLE4=The Wonderful Soup Stone
TTITLE5=The Winner
TTITLE6=InThe Hills of Shiloh
TTITLE7=She's My Ever Lovin' Machine
TTITLE8=The Mermaid
TTITLE9=Rest Awhile
TTITLE10=Bottomless Well
TTITLE11=True Story
TTITLE12=Sure Hit Songwriters Pen
TTITLE13=Roasalie's Good Eats Cafe
EXTD=
EXTT0=
EXTT1=
EXTT2=
EXTT3=
EXTT4=
EXTT5=
EXTT6=
EXTT7=
EXTT8=
EXTT9=
EXTT10=
EXTT11=
EXTT12=
EXTT13=
PLAYORDER=
